<?xml version="1.0" encoding="utf-8"?>
<!-- Generator: Adobe Illustrator 24.2.0, SVG Export Plug-In . SVG Version: 6.00 Build 0)  -->
<svg version="1.1" xmlns="http://www.w3.org/2000/svg" xmlns:xlink="http://www.w3.org/1999/xlink" x="0px" y="0px"
	 viewBox="0 0 500 500" style="enable-background:new 0 0 500 500;" xml:space="preserve">
<style type="text/css">
	.st0{fill:#FFFFFF;}
	.st1{fill:#DFF3FC;}
	.st2{fill:#A2C7EB;}
	.st3{fill:none;stroke:#A2C7EB;stroke-miterlimit:10;}
	.st4{fill:#0097D8;stroke:#0097D8;stroke-miterlimit:10;}
	.st5{fill:#0097D8;}
	.st6{fill:none;stroke:#6F8BBF;stroke-linecap:round;stroke-miterlimit:10;}
	.st7{fill:#E06A58;}
	.st8{fill:#F2AE30;}
	.st9{fill:#0A2240;}
	.st10{fill:#F9A07B;}
	.st11{fill:#FFC73C;}
	.st12{fill:#FFBB33;}
	.st13{fill:#FCE172;}
	.st14{fill:#325F73;}
	.st15{fill:#0B2D50;}
	.st16{fill:#3C738C;}
	.st17{fill:#56C4F9;}
	.st18{fill:#225570;}
	.st19{fill:none;stroke:#0B2D50;stroke-width:2;stroke-linecap:round;stroke-miterlimit:10;}
	.st20{fill:none;stroke:#CC454E;stroke-width:2;stroke-linecap:round;stroke-miterlimit:10;}
	.st21{fill:#262D40;}
	.st22{fill:#CC454E;}
	.st23{fill:#E8729B;}
	.st24{fill:#3D86E0;}
	.st25{fill:#3A92C9;}
	.st26{fill:none;stroke:#3A92C9;stroke-width:2;stroke-linecap:round;stroke-miterlimit:10;}
	.st27{fill:none;stroke:#CC454E;stroke-linecap:round;stroke-miterlimit:10;}
	.st28{fill:none;stroke:#F2AE30;stroke-linecap:round;stroke-miterlimit:10;}
</style>
<g id="BACKGROUND">
	<rect id="XMLID_111_" class="st0" width="500" height="500"/>
</g>
<g id="OBJECTS">
	<g id="XMLID_163_">
		<g id="XMLID_329_">
			<path id="XMLID_110_" class="st1" d="M430.53,409.57c47.49-36.11,68.64-136.24-8.47-185.34c-51.05-32.5-82.8-13.96-140.23-35.46
				c-70.11-26.24-80.56-105.52-165.84-66.51c-45.18,20.66-76.5,78.89-82.01,145.07c-5.4,64.81,17.57,109.28,64.51,139.71
				C208.72,411.73,319.17,410.88,430.53,409.57z"/>
			<path id="XMLID_109_" class="st1" d="M235.43,124.76c-7.17,28.8,19.46,57.31,47.53,69.13c28.06,11.83,60.24,10.42,90.31,4.78
				c12.97-2.43,26.31-5.85,36.38-14.12c10.08-8.27,15.92-22.63,10.4-34.23c-4.87-10.23-16.74-15.47-28.05-18.16
				c-11.31-2.69-23.33-3.79-33.4-9.45c-9.56-5.37-16.34-14.26-24.65-21.3c-15.36-12.99-36.93-19.43-56.89-15.32
				C257.08,90.2,241.53,100.28,235.43,124.76z"/>
		</g>
		<g id="XMLID_162_">
			<g id="XMLID_160_">
				<g id="XMLID_27_">
					<path id="XMLID_155_" class="st2" d="M450.29,257.23v-21.79h-8.26c-0.99-3.81-2.5-7.4-4.44-10.71l5.84-5.85l-15.41-15.41
						l-5.85,5.84c-3.31-1.94-6.9-3.45-10.71-4.44v-8.26h-21.79v8.26c-3.81,0.99-7.4,2.5-10.71,4.44l-5.85-5.84l-15.41,15.41
						l5.84,5.85c-1.94,3.31-3.44,6.9-4.44,10.71h-8.26v21.79h8.26c1,3.81,2.51,7.4,4.44,10.71l-5.84,5.85l15.41,15.41l5.85-5.84
						c3.31,1.94,6.9,3.44,10.71,4.44v8.26h21.79v-8.26c3.81-1,7.4-2.51,10.71-4.44l5.85,5.84l15.41-15.41l-5.84-5.85
						c1.94-3.31,3.45-6.9,4.44-10.71H450.29z M400.58,265.21c-10.43,0-18.88-8.45-18.88-18.88c0-10.42,8.45-18.87,18.88-18.87
						c10.42,0,18.87,8.45,18.87,18.87C419.45,256.75,410.99,265.21,400.58,265.21z"/>
					<path id="XMLID_66_" class="st3" d="M384.45,311.82l-4.15-10.81l-4.1,1.57c-1.22-1.7-2.65-3.19-4.24-4.47l1.78-4.01
						l-10.57-4.71l-1.79,4.01c-2.01-0.33-4.08-0.4-6.16-0.17l-1.57-4.1l-10.81,4.15l1.57,4.1c-1.7,1.22-3.19,2.65-4.47,4.24
						l-4.01-1.78l-4.71,10.57l4.01,1.79c-0.33,2.01-0.39,4.08-0.17,6.16l-4.1,1.57l4.15,10.81l4.1-1.57
						c1.22,1.7,2.65,3.19,4.24,4.47l-1.78,4.01l10.57,4.71l1.79-4.01c2.01,0.33,4.08,0.39,6.16,0.17l1.57,4.1l10.81-4.15l-1.57-4.1
						c1.7-1.22,3.19-2.65,4.47-4.24l4.01,1.78l4.71-10.57l-4.01-1.79c0.33-2.01,0.4-4.08,0.17-6.16L384.45,311.82z M361.32,325.24
						c-5.17,1.98-10.97-0.6-12.96-5.77c-1.98-5.17,0.6-10.97,5.77-12.95c5.17-1.98,10.97,0.6,12.95,5.77
						C369.07,317.45,366.48,323.25,361.32,325.24z"/>
					<path id="XMLID_69_" class="st3" d="M349.05,273.92l-2.8-7.3l-2.77,1.06c-0.82-1.15-1.79-2.16-2.87-3.02l1.21-2.71l-7.14-3.18
						l-1.21,2.71c-1.36-0.22-2.76-0.27-4.16-0.11l-1.06-2.77l-7.3,2.8l1.06,2.77c-1.15,0.82-2.16,1.79-3.02,2.87l-2.71-1.21
						l-3.18,7.14l2.71,1.21c-0.22,1.36-0.27,2.75-0.11,4.16l-2.77,1.06l2.8,7.3l2.77-1.06c0.83,1.15,1.79,2.16,2.87,3.02l-1.21,2.71
						l7.14,3.18l1.21-2.71c1.36,0.22,2.75,0.27,4.16,0.11l1.06,2.77l7.3-2.8l-1.06-2.77c1.15-0.83,2.16-1.79,3.02-2.87l2.71,1.21
						l3.18-7.14l-2.71-1.21c0.22-1.36,0.27-2.76,0.11-4.16L349.05,273.92z M333.42,282.98c-3.49,1.34-7.41-0.41-8.75-3.9
						c-1.34-3.49,0.41-7.41,3.9-8.75c3.49-1.34,7.41,0.41,8.75,3.9C338.66,277.72,336.91,281.64,333.42,282.98z"/>
				</g>
				<g id="XMLID_29_">
					<path id="XMLID_30_" class="st4" d="M346.51,146.09c0,10.95-5.12,20.71-13.08,27.01c-5.86,4.65-13.27,7.41-21.35,7.41
						c-8.05,0-15.47-2.76-21.35-7.41c-7.97-6.31-13.08-16.07-13.08-27.01c0-19.01,15.41-34.43,34.43-34.43
						C331.1,111.66,346.51,127.08,346.51,146.09z"/>
					<g id="XMLID_31_">
						
							<ellipse id="XMLID_32_" transform="matrix(0.9925 -0.1225 0.1225 0.9925 -14.1588 39.2505)" class="st0" cx="312.09" cy="134.76" rx="11.27" ry="11.27"/>
						<path id="XMLID_33_" class="st0" d="M333.43,168.76c-5.86,4.65-13.27,7.41-21.35,7.41c-8.05,0-15.47-2.76-21.35-7.41
							c2.2-9.69,4.23-18.05,6.34-20.17c2.98-2.98,10.89-4.71,15-4.71s12.4,2.11,13.93,3.64
							C329.12,150.63,331.81,159.22,333.43,168.76z"/>
					</g>
				</g>
				<g id="XMLID_34_">
					<g id="XMLID_35_">
						<path id="XMLID_36_" class="st5" d="M262.61,230.95v-17c0-4.64,3.76-8.4,8.4-8.4h53.56c4.64,0,8.4,3.76,8.4,8.4v17
							c0,4.64-3.76,8.4-8.4,8.4h-53.55C266.38,239.36,262.61,235.59,262.61,230.95z"/>
						<polyline id="XMLID_37_" class="st5" points="285.23,230.06 259.31,255.31 301.32,234.08 						"/>
					</g>
					<g id="XMLID_38_">
						<path id="XMLID_39_" class="st0" d="M269.11,213.53v-0.09c0-0.69,0.56-1.25,1.25-1.25h26.48c0.69,0,1.25,0.56,1.25,1.25v0.09
							c0,0.69-0.56,1.25-1.25,1.25h-26.48C269.67,214.78,269.11,214.22,269.11,213.53z"/>
						<path id="XMLID_40_" class="st0" d="M299.28,213.53v-0.09c0-0.69,0.56-1.25,1.25-1.25h23.11c0.69,0,1.25,0.56,1.25,1.25v0.09
							c0,0.69-0.56,1.25-1.25,1.25h-23.11C299.84,214.78,299.28,214.22,299.28,213.53z"/>
						<path id="XMLID_41_" class="st0" d="M289.19,219.22v-0.09c0-0.69,0.56-1.25,1.25-1.25h33.2c0.69,0,1.25,0.56,1.25,1.25v0.09
							c0,0.69-0.56,1.25-1.25,1.25h-33.2C289.75,220.47,289.19,219.91,289.19,219.22z"/>
						<path id="XMLID_42_" class="st0" d="M269.11,219.22v-0.09c0-0.69,0.56-1.25,1.25-1.25h14.83c0.69,0,1.25,0.56,1.25,1.25v0.09
							c0,0.69-0.56,1.25-1.25,1.25h-14.83C269.67,220.47,269.11,219.91,269.11,219.22z"/>
						<path id="XMLID_43_" class="st0" d="M293.8,224.91v-0.09c0-0.69,0.56-1.25,1.25-1.25h28.59c0.69,0,1.25,0.56,1.25,1.25v0.09
							c0,0.69-0.56,1.25-1.25,1.25h-28.59C294.36,226.16,293.8,225.6,293.8,224.91z"/>
						<path id="XMLID_44_" class="st0" d="M269.11,224.91v-0.09c0-0.69,0.56-1.25,1.25-1.25h19.75c0.69,0,1.25,0.56,1.25,1.25v0.09
							c0,0.69-0.56,1.25-1.25,1.25h-19.75C269.67,226.16,269.11,225.6,269.11,224.91z"/>
						<path id="XMLID_45_" class="st0" d="M269.11,230.6v-0.09c0-0.69,0.56-1.25,1.25-1.25h7.33c0.69,0,1.25,0.56,1.25,1.25v0.09
							c0,0.69-0.56,1.25-1.25,1.25h-7.33C269.67,231.85,269.11,231.29,269.11,230.6z"/>
						<path id="XMLID_46_" class="st0" d="M281.53,230.6v-0.09c0-0.69,0.56-1.25,1.25-1.25h40.86c0.69,0,1.25,0.56,1.25,1.25v0.09
							c0,0.69-0.56,1.25-1.25,1.25h-40.86C282.09,231.85,281.53,231.29,281.53,230.6z"/>
					</g>
				</g>
				<g id="XMLID_25_">
					<g id="XMLID_24_">
						
							<ellipse id="XMLID_28_" transform="matrix(0.4219 -0.9067 0.9067 0.4219 -116.8819 202.5268)" class="st5" cx="100.37" cy="192.91" rx="33.12" ry="33.12"/>
						<g id="XMLID_20_">
							<g id="XMLID_18_">
								
									<ellipse id="XMLID_1_" transform="matrix(0.9435 -0.3314 0.3314 0.9435 -64.0872 42.4944)" class="st0" cx="92.56" cy="209.17" rx="8.03" ry="8.03"/>
								<polygon id="XMLID_17_" class="st5" points="88.35,212.05 87.96,206.96 92.18,204.08 96.78,206.29 97.17,211.38 
									92.95,214.26 								"/>
							</g>
							<g id="XMLID_21_">
								
									<ellipse id="XMLID_23_" transform="matrix(0.9416 -0.3366 0.3366 0.9416 -53.1546 46.7234)" class="st0" cx="108.17" cy="176.66" rx="8.03" ry="8.03"/>
								<polygon id="XMLID_22_" class="st5" points="104.19,179.05 104.47,172.58 109.35,168.32 113.95,170.53 113.67,177 
									108.79,181.26 								"/>
							</g>
							<path id="XMLID_19_" class="st0" d="M98.12,205.46l-6.14-2.95l4.54-10.47c0.29-0.66,0.6-1.32,0.94-1.96l5.33-10.09l6.14,2.95
								l-4.38,10.31c-0.34,0.8-0.71,1.58-1.12,2.34L98.12,205.46z"/>
						</g>
					</g>
					<path id="XMLID_26_" class="st5" d="M123.37,210.73c1.18-0.55,20.19,0.32,20.19,0.32l-13.7-12.58L123.37,210.73z"/>
				</g>
				<g id="XMLID_159_">
					<g id="XMLID_74_">
						<g id="XMLID_157_">
							
								<ellipse id="XMLID_166_" transform="matrix(0.397 -0.9178 0.9178 0.397 -6.8524 237.5465)" class="st5" cx="177.36" cy="123.99" rx="32.55" ry="32.55"/>
						</g>
					</g>
					<g id="XMLID_158_">
						<rect id="XMLID_72_" x="176.28" y="96.25" class="st0" width="2.17" height="27.34"/>
						
							<rect id="XMLID_73_" x="164.26" y="118.51" transform="matrix(-0.5691 -0.8222 0.8222 -0.5691 150.6231 343.6579)" class="st0" width="2.17" height="27.71"/>
						<path id="XMLID_156_" class="st0" d="M180.36,123.99c0,1.65-1.34,3-3,3c-1.65,0-3-1.34-3-3c0-1.65,1.34-3,3-3
							C179.02,120.99,180.36,122.33,180.36,123.99z"/>
					</g>
				</g>
			</g>
			<g id="XMLID_161_">
				<g id="XMLID_231_">
					<g id="XMLID_5_">
						<g id="XMLID_6_">
							<path id="XMLID_108_" class="st2" d="M265.74,344.41c-1.93-29.76,11.09-60.56,33.02-78.18
								C299.44,296.14,286.55,326.41,265.74,344.41z"/>
							<path id="XMLID_107_" class="st6" d="M295.18,274.24c-9.24,17.22-17.23,35.24-23.87,53.83
								c-8.07,22.57-14.42,46.55-28.24,65.47"/>
						</g>
						<g id="XMLID_7_">
							<path id="XMLID_106_" class="st2" d="M258.82,363.13c11.1-24.83,33.13-43.59,57.42-48.9
								C305.9,340.84,282.64,361.14,258.82,363.13z"/>
							<path id="XMLID_105_" class="st6" d="M310.28,319.7c-16.59,14.6-33.46,28.79-50.61,42.56"/>
						</g>
						<g id="XMLID_8_">
							<path id="XMLID_104_" class="st2" d="M252.27,384.76c14.83-22.15,42.19-33.71,64.83-27.39
								C300.45,379.24,273.03,390.83,252.27,384.76z"/>
							<path id="XMLID_103_" class="st6" d="M311.67,358.97c-19.44,12.16-40.41,21.14-62.03,26.54"/>
						</g>
						<g id="XMLID_9_">
							<path id="XMLID_102_" class="st2" d="M260.28,355.6c4.74-24.94-2.37-52.74-18.2-71.13
								C235.59,308.98,241.78,337.7,260.28,355.6z"/>
							<path id="XMLID_101_" class="st6" d="M243.71,290.83c3.12,23.2,8.67,44.93,17.27,66.17"/>
						</g>
						<g id="XMLID_10_">
							<path id="XMLID_100_" class="st2" d="M252.14,376.84c-2.02-25.64-15.16-49.72-34.38-63.01c1.11,13.58,4.72,26.67,10.45,38.57
								C234.8,366.07,244.48,374.74,252.14,376.84z"/>
							<path id="XMLID_99_" class="st6" d="M220.61,319.02c7.56,21.38,18.44,41.2,32.01,58.36"/>
						</g>
					</g>
					<g id="XMLID_11_">
						<g id="XMLID_12_">
							<path id="XMLID_98_" class="st2" d="M400.57,370.69c10.49-27.29,34.62-49.43,61.23-56.17
								C450.14,341.44,426.34,363.14,400.57,370.69z"/>
							<path id="XMLID_97_" class="st6" d="M455.35,320.19c-15.22,11.57-29.68,24.36-43.16,38.21
								c-16.38,16.82-31.83,35.58-51.8,46.8"/>
						</g>
						<g id="XMLID_13_">
							<path id="XMLID_96_" class="st2" d="M386.78,384.54c19.99-17.59,47.15-25.31,70.79-20.13
								C437.53,383.9,408.65,392.49,386.78,384.54z"/>
							<path id="XMLID_95_" class="st6" d="M450.06,366.86c-20.65,6.24-41.38,11.99-62.18,17.26"/>
						</g>
						<g id="XMLID_14_">
							<path id="XMLID_94_" class="st2" d="M372.12,401.14c22.19-13.68,51.11-12.81,68.53,2.06
								C416.97,415.88,387.98,415.01,372.12,401.14z"/>
							<path id="XMLID_93_" class="st6" d="M435.2,402.4c-22.16,2.9-44.39,2.34-65.7-1.67"/>
						</g>
						<g id="XMLID_15_">
							<path id="XMLID_92_" class="st2" d="M391.16,378.43c14.41-20.28,19.52-47.95,13.07-70.79
								C388.44,326.82,382.14,354.93,391.16,378.43z"/>
							<path id="XMLID_91_" class="st6" d="M403.06,313.96c-6.76,21.94-10.75,43.56-11.85,66"/>
						</g>
						<g id="XMLID_16_">
							<path id="XMLID_90_" class="st2" d="M375.26,394.03c8.72-23.66,6.98-50.48-4.56-70.16c-4.58,12.55-6.76,25.68-6.57,38.62
								C364.34,377.35,369.34,389.03,375.26,394.03z"/>
							<path id="XMLID_89_" class="st6" d="M371.08,329.65c-2.08,22.13-0.59,44.23,4.37,65.05"/>
						</g>
					</g>
					<g id="XMLID_112_">
						<path id="XMLID_88_" class="st2" d="M103.27,322.98c-10.69-32.71-40.54-59.14-75.25-66.64
							C42.61,284.64,69.08,307.16,103.27,322.98z"/>
						<path id="XMLID_87_" class="st2" d="M105.08,328.05c-23.42-13.25-52.77-16.17-78.22-7.79
							C50.46,332.05,78.42,335.33,105.08,328.05z"/>
						<path id="XMLID_86_" class="st2" d="M111.56,335.15c-25.32-3.51-51.83,2.73-72.39,17.04
							C62.48,360.66,90.45,355.16,111.56,335.15z"/>
						<path id="XMLID_85_" class="st2" d="M119.45,350.64c-25.07-0.1-49.72,11.81-64.46,31.16c11.16,2.24,23.01,0.9,33.24-3.74
							C98.47,373.43,107.05,365.51,119.45,350.64z"/>
						<path id="XMLID_84_" class="st2" d="M137.13,376.57c-24.72-4.24-51.06,3.42-68.89,20.04c10.64,4.04,22.55,4.69,33.44,1.82
							C112.56,395.55,122.37,389.17,137.13,376.57z"/>
						<path id="XMLID_83_" class="st2" d="M110.44,324.53c-16.32-22-20.75-51.65-11.48-76.88c7.08,11.99,13.19,24.67,16.04,38.15
							C117.85,299.28,117.3,313.65,110.44,324.53z"/>
						<path id="XMLID_82_" class="st2" d="M120.41,345.76c-3.87-23.38,4.13-48.15,21.01-65.08
							C143.36,304.86,135.96,329.5,120.41,345.76z"/>
						<g id="XMLID_113_">
							<path id="XMLID_81_" class="st6" d="M35.61,262.2c49.68,31.79,88.54,79.17,109.05,133.01"/>
							<path id="XMLID_80_" class="st6" d="M100.5,259.25c6.04,24.54,9.72,49.59,10.96,74.72"/>
							<path id="XMLID_79_" class="st6" d="M137.71,290.16c-1.98,19.8-8.1,39.15-17.87,56.58"/>
							<path id="XMLID_78_" class="st6" d="M37.32,320.83c22.78,4.33,45.93,6.68,69.09,7.02"/>
							<path id="XMLID_77_" class="st6" d="M51.04,350.24c21-1.53,41.67-6.61,60.77-14.97"/>
							<path id="XMLID_76_" class="st6" d="M63.63,378.27c19.38-9.67,38.76-19.35,58.14-29.01"/>
							<path id="XMLID_75_" class="st6" d="M76.23,395.34c25.3-4.88,32.82-10.71,60.9-18.77"/>
						</g>
					</g>
				</g>
				<g id="XMLID_4_">
					<g id="XMLID_47_">
						<path id="XMLID_65_" class="st7" d="M236.42,348.99c0,0,2.19,20.07,4.64,21.68c4.38,2.89,55.08,9.57,55.08,9.57l-1.66,13.19
							c0,0-69.44,6.24-72.39,2.77c-5.12-6.02-14.12-35.06-14.12-35.06L236.42,348.99z"/>
						<path id="XMLID_64_" class="st8" d="M202.94,297.32l5.61-13.47c0,0,15.22,7.15,20.24,15.98c5.37,9.44,11.94,59.63,11.94,59.63
							s-26.87,6.19-31.81,3.56C203.98,360.39,202.94,297.32,202.94,297.32z"/>
					</g>
					<path id="XMLID_63_" class="st9" d="M160.21,234.8c-3.93-1.44-8.09-2.7-12.3-2.38c-4.21,0.32-8.51,2.55-9.94,6.25
						c-1.02,2.62-0.55,5.71-2.16,8.07c-1.54,2.26-4.6,3.2-7.46,3.39c-2.87,0.2-5.76-0.18-8.61,0.19
						c-8.8,1.17-15.08,10.73-12.19,18.56c1.15,3.12,3.51,6.1,2.97,9.35c-0.57,3.48-4.22,5.77-5.72,9c-1.99,4.3,0.39,9.51,4.32,12.44
						c3.93,2.92,9.04,4.03,14,4.77c6.83,1.02,13.88,1.5,20.63,0.06s13.2-5,16.69-10.56c1.55-2.46,2.49-5.24,4.29-7.55
						c3.72-4.77,10.31-6.62,15.5-10c5.67-3.71,9.83-10.93,6.49-16.58c-3.22-5.43-11.6-6.64-14.96-11.99
						c-1.39-2.21-1.72-4.84-2.62-7.25C168.22,238.15,166.02,236.93,160.21,234.8z"/>
					<g id="XMLID_48_">
						<path id="XMLID_62_" class="st10" d="M183.11,301.41c0.99,1.14,2.16,2.39,3.78,2.5c1.71,0.12,3.14-1.09,4.24-2.26
							c5.68-6.01,9.43-13.39,10.95-21c-1.41-0.8-2.77-1.57-4-2.29c-1.14-0.68-2-1.63-2.49-2.74c-0.34-0.82-0.46-1.68-0.37-2.58
							c0.8-7.52,1.51-11.71,4.15-19.34c-12.54-2.83-24.37-6.19-31.17-11.87c-0.83,3.5-1.81,10.35-3.9,17.14
							c-2.23,7.19-5.71,14.3-11.61,17.36C164.27,283.17,174.6,291.67,183.11,301.41z"/>
						<path id="XMLID_61_" class="st7" d="M195.22,273.05c-0.09,0.9,0.03,1.77,0.37,2.58c-7.42,9-24.01-2.76-31.29-16.65
							c2.09-6.79,3.07-13.64,3.9-17.14c6.79,5.68,18.63,9.05,31.17,11.87C196.73,261.34,196.02,265.52,195.22,273.05z"/>
					</g>
					<g id="XMLID_49_">
						<path id="XMLID_60_" class="st11" d="M215.88,381.85c-1.64,10.86,10.08,22.55,10.37,28.35c-24.89,0-77.03,1.52-103.58-2.09
							c-1.21-6.7,11.9-21.77,11.9-36.65c0-1.97-0.08-4.13-0.24-6.45c-0.42-6.64-1.4-14.54-2.49-22.64
							c-2.96-21.73-6.9-44.97-3.99-49.79c5.7-9.39,19.03-15.77,25.64-18.51c2.27-0.94,3.75-1.45,3.86-1.51
							c8.29,14.14,25.16,26.2,31.53,25.66c1.77-0.14,7.02-1.97,10.49-19.44c1.35,0.77,2.7,1.48,4.04,2.17
							c6.59,3.43,12.77,6.26,14.55,10.67c4.7,11.61,9.31,40.88,8.29,51.29c-1.03,10.5-5.25,18.52-8.21,29.06
							c-0.69,2.47-1.32,5.09-1.83,7.91C216.08,380.51,215.98,381.17,215.88,381.85z"/>
						<path id="XMLID_59_" class="st12" d="M226.25,410.2c-24.89,0-77.03,1.52-103.58-2.09c-1.21-6.7,11.9-21.77,11.9-36.65
							c0-1.97-0.08-4.13-0.24-6.45c-0.42-6.64-1.4-14.54-2.49-22.64c4.71,4.97,11.58-16.03,14.62-9.88
							c16.45,33.2,29.42,41.93,51.96,41.93c6.72,0,12.92-0.93,19.62-2.45c-0.69,2.47-1.32,5.09-1.83,7.91
							c-0.12,0.64-0.23,1.3-0.33,1.98C214.24,392.7,225.96,404.39,226.25,410.2z"/>
						<path id="XMLID_58_" class="st13" d="M203.41,280.95c-1.07,7.77-4.24,18.24-13.46,21c-12.46,3.73-30.49-19.55-36.46-27.88
							c2.27-0.94,3.75-1.45,3.86-1.51c8.29,14.14,25.16,26.2,31.53,25.66c1.77-0.14,7.02-1.97,10.49-19.44
							C200.72,279.54,202.07,280.25,203.41,280.95z"/>
					</g>
					<g id="XMLID_50_">
						<g id="XMLID_51_">
							<g id="XMLID_52_">
								<polygon id="XMLID_57_" class="st14" points="208.53,398.51 208.44,407.18 363.44,408.1 363.76,398.27 								"/>
							</g>
							<g id="XMLID_53_">
								<polygon id="XMLID_56_" class="st14" points="430.62,321.16 427.17,317.66 314.27,316.92 257.63,398.83 260.59,401.21 
																	"/>
								<polygon id="XMLID_55_" class="st15" points="316.45,319.95 260.59,401.21 367.29,401.74 430.62,321.16 								"/>
							</g>
						</g>
						<ellipse id="XMLID_54_" class="st16" cx="343.41" cy="365.61" rx="12.42" ry="6.21"/>
					</g>
					<g id="XMLID_114_">
						<g id="XMLID_115_">
							
								<ellipse id="XMLID_116_" transform="matrix(0.1832 -0.9831 0.9831 0.1832 -56.3324 415.8722)" class="st17" cx="222.1" cy="241.84" rx="17.39" ry="11.47"/>
						</g>
						<path id="XMLID_117_" class="st15" d="M233.39,214.3c-1.16,8.22-4.83,17.28-10.18,27.29c-1.88-8.2-3.08-18.19-4.74-28.18
							c-1.69-10.01-3.84-20.02-7.57-28.2c-0.84-1.81-1.75-3.54-2.74-5.14c2.21-0.21,4.45,0,6.58,0.59c3.33,0.89,6.45,2.61,9,4.91
							c4.24,3.77,7.08,8.91,8.77,14.33C233.9,204.4,234.15,209.18,233.39,214.3z"/>
						<g id="XMLID_118_">
							<path id="XMLID_119_" class="st10" d="M227.11,222.8c-0.06,1.62-0.17,3.27-0.32,4.91c-2.28,26.6-13.45,44.85-30.54,44.85
								c-24.13,0-39.77-27.06-39.77-53.57c0-26.15,16.02-45.08,34.77-42.89c10.81,1.24,18.71,4.83,24.32,10.09
								c3.71,3.5,6.39,7.73,8.22,12.54c2.09,5.39,3.1,11.49,3.31,18.06c0,0.02,0.02,0.04,0.02,0.06
								C227.2,218.79,227.18,220.77,227.11,222.8z"/>
							<path id="XMLID_120_" class="st7" d="M227.11,222.8c-0.72-2.57-1.79-5.08-3.25-7.33c-14.23,7.44-31.19,10.31-47.27,7.59
								c-3.06,2.55-6.05,5.06-9.06,7.57c0.06-12.1,0.23-20.29,4.95-26.15c4.43-5.5,11.82-7.57,18.82-8.47
								c7.88-1.03,15.89-0.99,23.75,0.15c3.01,0.42,6.13,1.07,8.75,2.59c2.09,5.39,3.1,11.49,3.31,18.06c0,0.02,0.02,0.04,0.02,0.06
								C227.2,218.79,227.18,220.77,227.11,222.8z"/>
						</g>
						<path id="XMLID_121_" class="st15" d="M230.59,206.42c-3.31,2.8-7.46,5.12-12.12,7c-13.26,5.35-30.49,7.12-43.92,6.47
							c-6.6,14.5-9.27,19.7-10.96,32.35c-6.45-6.05-11.7-17.13-13.26-25.84c-1.54-8.68-1.39-17.79,1.03-26.32
							c3.81-13.45,13.42-20.65,20.08-24.15c1.66-0.91,3.16-1.54,4.32-2c8.51-3.29,18.1-2.99,26.83-0.32
							c4.76,1.48,8.77,3.98,12.14,7.06c6.81,6.15,11.02,14.48,13.74,20.72C229.33,203.3,230.02,205.03,230.59,206.42z"/>
						<path id="XMLID_122_" class="st18" d="M233.39,214.3c-0.55-2.91-1.37-5.73-2.53-8.45c-0.65-1.54-1.45-3.03-2.38-4.47
							c-3.03-4.76-7.44-8.68-12.77-10.41c-1.52-2.13-3.12-4.05-4.8-5.75c-6.05-6.15-13.15-9.67-20.67-10.9
							c-6.26-1.01-12.77-0.44-18.78,1.6c1.66-0.91,3.16-1.54,4.32-2c8.51-3.29,18.1-2.99,26.83-0.32c4.76,1.48,8.77,3.98,12.14,7.06
							c3.33,0.89,6.45,2.61,9,4.91c4.24,3.77,7.08,8.91,8.77,14.33C233.9,204.4,234.15,209.18,233.39,214.3z"/>
						<g id="XMLID_123_">
							<g id="XMLID_124_">
								<path id="XMLID_125_" class="st19" d="M182.24,230.61c4.46-2.55,9.09-3.7,15.58-1.33"/>
								<path id="XMLID_126_" class="st19" d="M212.78,230.43c3.82-2.85,9.48-3.14,12.43,0"/>
								<path id="XMLID_127_" class="st20" d="M208.17,244.97c0.39,2.02,0.18,6.49-0.78,8.5"/>
								<ellipse id="XMLID_128_" class="st21" cx="193.1" cy="243.43" rx="1.84" ry="2.9"/>
								<ellipse id="XMLID_129_" class="st21" cx="217.15" cy="242.08" rx="1.84" ry="2.9"/>
							</g>
							<g id="XMLID_130_">
								<path id="XMLID_131_" class="st22" d="M205.89,257.42c0,0-0.36,0.7-1.05,1.65c-1.08,1.45-2.92,3.45-5.43,4.23h-0.01
									c-1.06,0.34-2.21,0.46-3.49,0.23c-3.76-0.67-4.75-4.14-4.93-6.81c-0.04-0.52-0.04-1-0.03-1.44c0.02-1.08,0.14-1.8,0.14-1.8
									C197.08,256.78,205.89,257.42,205.89,257.42z"/>
								<path id="XMLID_132_" class="st0" d="M205.89,257.42c0,0-0.36,0.7-1.05,1.65c-3.06-0.04-9.32-1.61-13.89-3.79
									c0.02-1.08,0.14-1.8,0.14-1.8C197.08,256.78,205.89,257.42,205.89,257.42z"/>
								<path id="XMLID_133_" class="st23" d="M199.4,263.29c-1.06,0.34-2.21,0.46-3.49,0.23c-3.76-0.67-4.75-4.14-4.93-6.81
									c1.82,0.22,3.58,0.92,5.04,2.03C197.55,259.91,198.72,261.5,199.4,263.29z"/>
							</g>
						</g>
						<g id="XMLID_134_">
							<path id="XMLID_135_" class="st24" d="M163.65,226.02c0,0-0.21-12.47,4.98-24.86c6.51-15.55,19.78-22.2,32.65-22.65
								c15.51-0.55,25.22,9.86,25.22,9.86s-5.05-8.91-15.01-11.47c-6.54-1.68-16.41-1.95-24.33,1.27
								c-8.16,3.31-18.33,12.5-22.01,22.21c-3.67,9.71-5.46,24.83-5.46,24.83L163.65,226.02z"/>
							<g id="XMLID_136_">
								
									<ellipse id="XMLID_137_" transform="matrix(0.9946 -0.1034 0.1034 0.9946 -23.98 17.9882)" class="st17" cx="161.5" cy="240.27" rx="12.09" ry="18.32"/>
								
									<ellipse id="XMLID_138_" transform="matrix(0.9889 -0.1486 0.1486 0.9889 -34.1442 26.2033)" class="st24" cx="158.28" cy="241.6" rx="7.85" ry="13.81"/>
							</g>
							<g id="XMLID_139_">
								<ellipse id="XMLID_140_" class="st25" cx="201.38" cy="268.92" rx="6.44" ry="4.01"/>
								<path id="XMLID_141_" class="st26" d="M169.03,255.51c0,0,9.46,12.16,25.91,13.41"/>
							</g>
						</g>
					</g>
					<g id="XMLID_142_">
						<g id="XMLID_143_">
							<g id="XMLID_144_">
								<g id="XMLID_145_">
									<path id="XMLID_146_" class="st10" d="M208.44,375.36l-0.62,15.99c0,0-57.83,17.33-67.38,11.85
										c-4.66-2.68-9.01-17.42-12.26-31.81c-3.4-15.12-5.58-29.84-5.58-29.84l33.9-6.64c0,0,0.02,20.67,1.17,32.62
										c0.41,4.45,1,7.69,1.79,8.22C162.45,377.72,208.44,375.36,208.44,375.36z"/>
									<path id="XMLID_147_" class="st7" d="M157.67,367.51c-6.16,2-18.05,5.09-29.49,3.87c-3.4-15.12-5.58-29.84-5.58-29.84
										l33.9-6.64C156.5,334.89,156.52,355.56,157.67,367.51z"/>
								</g>
								<g id="XMLID_148_">
									<path id="XMLID_149_" class="st10" d="M206.79,375.52c8.6-1.84,23.16-6.26,29.2-7.78c4.29-1.08,15.46,4.7,18.41,10.15
										c1.29,2.38,2.51,15.86-1.96,14.47c-2.24-0.7-1.87-6.48-2.57-8.84c-0.57-1.92-2.39-3.78-5.16-5.38
										c1.85,4.61,1.78,8.63,1.58,13.61c-0.04,1.1-0.11,2.25-0.64,3.2c-0.54,0.95-1.7,1.63-2.7,1.21c-1.02-0.42-1.37-1.69-1.6-2.8
										c-0.79-3.84-1.59-7.68-1.91-12.02c0.08,4.27-0.01,8.55-0.28,12.81c-0.2,3.26-1.82,5.05-3.81,4.48
										c-0.89-0.25-1.25-1.07-1.63-2.15c-0.6,2.09-2.1,4.4-4.04,3.52c-1.18-0.53-1.91-4.79-1.7-9.17
										c-3.72,2.31-7.92,3.29-12.76,3.51c-4.34,0.2-8.78-0.61-11.39-3.56C204.09,386.17,205.61,379.35,206.79,375.52z"/>
									<path id="XMLID_150_" class="st27" d="M233.81,395.82c0.29-3.46-0.01-6.97-0.89-10.31"/>
								</g>
							</g>
							<path id="XMLID_151_" class="st11" d="M152.69,301.37c-2.46-6.93-11.47-21.11-11.47-21.11s-13.75,5.72-18.63,15.43
								c-8.26,16.44-4.06,63.64-4.06,63.64c11.13,4.66,33.47,4.73,42.98,3.39C161.51,362.72,157.62,315.22,152.69,301.37z"/>
						</g>
						<path id="XMLID_152_" class="st28" d="M154.44,304.27c3.75,17.95,5.76,34.69,6.4,51.09"/>
					</g>
				</g>
				<rect id="XMLID_3_" x="54.46" y="405.25" class="st15" width="394.28" height="9.89"/>
			</g>
		</g>
	</g>
</g>
</svg>
