<?xml version="1.0" encoding="utf-8"?>
<!-- Generator: Adobe Illustrator 24.2.0, SVG Export Plug-In . SVG Version: 6.00 Build 0)  -->
<svg version="1.1" id="Layer_1" xmlns="http://www.w3.org/2000/svg" xmlns:xlink="http://www.w3.org/1999/xlink" x="0px" y="0px"
	 viewBox="0 0 763.2 408.96" style="enable-background:new 0 0 763.2 408.96;" xml:space="preserve">
<style type="text/css">
	.st0{fill:#EF8800;}
	.st1{fill:#EF8800;stroke:#EF8800;stroke-width:2;stroke-miterlimit:10;}
</style>
<g>
	<g>
		<path class="st0" d="M90.12,220.37c-6.31,7.42-15.58,11.13-27.79,11.13c-10.11,0-17.81-2.94-23.1-8.81s-7.96-14.57-8.02-26.08
			v-61.73h16.22v61.29c0,14.38,5.84,21.57,17.54,21.57c12.39,0,20.63-4.62,24.73-13.85v-69h16.22v94.87H90.48L90.12,220.37z"/>
		<path class="st0" d="M126.69,182.01c0-14.79,3.42-26.55,10.26-35.29c6.84-8.74,15.9-13.11,27.18-13.11
			c11.57,0,20.6,4.09,27.09,12.27l0.79-10.52h14.82v92.59c0,12.28-3.64,21.95-10.92,29.02s-17.05,10.61-29.33,10.61
			c-6.84,0-13.53-1.46-20.08-4.38s-11.54-6.93-14.99-12.01l8.42-9.73c6.96,8.59,15.46,12.89,25.51,12.89
			c7.89,0,14.04-2.22,18.46-6.66c4.41-4.44,6.62-10.7,6.62-18.76v-8.15c-6.49,7.48-15.34,11.22-26.57,11.22
			c-11.11,0-20.09-4.47-26.96-13.41C130.12,209.63,126.69,197.44,126.69,182.01z M142.99,183.85c0,10.7,2.19,19.1,6.58,25.21
			c4.38,6.11,10.52,9.16,18.41,9.16c10.23,0,17.74-4.65,22.53-13.94v-43.31c-4.97-9.06-12.42-13.59-22.36-13.59
			c-7.89,0-14.06,3.07-18.5,9.21C145.22,162.72,142.99,171.81,142.99,183.85z"/>
		<path class="st0" d="M289.85,228.31c-0.94-1.87-1.7-5.2-2.28-10c-7.54,7.83-16.54,11.75-27,11.75c-9.35,0-17.02-2.64-23.02-7.93
			c-5.99-5.29-8.99-12-8.99-20.12c0-9.88,3.76-17.55,11.27-23.02c7.51-5.46,18.08-8.2,31.7-8.2h15.78v-7.45
			c0-5.67-1.7-10.18-5.08-13.55c-3.39-3.36-8.39-5.04-14.99-5.04c-5.79,0-10.64,1.46-14.55,4.38c-3.92,2.92-5.87,6.46-5.87,10.61
			H230.5c0-4.73,1.68-9.31,5.04-13.72s7.92-7.9,13.68-10.48c5.76-2.57,12.08-3.86,18.98-3.86c10.93,0,19.49,2.73,25.69,8.2
			c6.19,5.47,9.41,12.99,9.64,22.58v43.66c0,8.71,1.11,15.64,3.33,20.78v1.4L289.85,228.31L289.85,228.31z M262.94,215.95
			c5.08,0,9.91-1.31,14.47-3.95c4.56-2.63,7.86-6.05,9.91-10.26v-19.46H274.6c-19.87,0-29.81,5.82-29.81,17.45
			c0,5.09,1.69,9.06,5.08,11.92C253.26,214.52,257.62,215.95,262.94,215.95z"/>
		<path class="st0" d="M387.89,227.02c-0.94-1.87-1.7-5.2-2.28-10c-7.54,7.83-16.54,11.75-27,11.75c-9.35,0-17.02-2.64-23.02-7.93
			c-5.99-5.29-8.99-12-8.99-20.12c0-9.88,3.75-17.55,11.27-23.02c7.51-5.46,18.08-8.2,31.7-8.2h15.78v-7.45
			c0-5.67-1.7-10.18-5.09-13.55c-3.39-3.36-8.39-5.04-14.99-5.04c-5.79,0-10.64,1.46-14.55,4.38c-3.92,2.92-5.88,6.46-5.88,10.61
			h-16.31c0-4.73,1.68-9.31,5.04-13.72c3.36-4.41,7.92-7.9,13.68-10.48c5.76-2.57,12.08-3.86,18.98-3.86
			c10.93,0,19.49,2.73,25.69,8.2c6.19,5.47,9.41,12.99,9.64,22.58v43.66c0,8.71,1.11,15.64,3.33,20.78v1.4L387.89,227.02
			L387.89,227.02z M360.97,214.66c5.09,0,9.91-1.31,14.47-3.95c4.56-2.63,7.86-6.05,9.91-10.26v-19.46h-12.71
			c-19.88,0-29.81,5.82-29.81,17.45c0,5.09,1.69,9.06,5.08,11.92C351.3,213.23,355.65,214.66,360.97,214.66z"/>
	</g>
</g>
<g>
	<path class="st0" d="M630.88,208.35c-6.31,7.42-15.58,11.13-27.79,11.13c-10.11,0-17.81-2.94-23.1-8.81s-7.96-14.57-8.02-26.08
		v-61.73h16.22v61.29c0,14.38,5.84,21.57,17.54,21.57c12.39,0,20.63-4.62,24.73-13.85v-69h16.22v94.87h-15.43L630.88,208.35z"/>
	<path class="st0" d="M703.13,157.5l21.04-34.63h18.94l-31.04,46.91l32,47.96h-18.76l-21.92-35.51l-21.92,35.51h-18.85l32-47.96
		l-31.04-46.91h18.76L703.13,157.5z"/>
</g>
<path class="st1" d="M663.19,238.92c-8.36,0.08-15.95-0.1-21.36-7.52c-0.3-0.41-0.82-0.68-1.25-0.99
	c-6.72-4.94-14.38-4.54-20.36,1.22c-2.01,1.93-3.8,4.1-5.58,6.25c-6.69,8.07-7.47,7.95-11.94-1.41c-1.89-3.95-3.69-8.06-6.32-11.51
	c-5.15-6.74-13.19-5.89-17.14,1.5c-1.31,2.46-2.3,5.09-3.5,7.62c-0.45,0.95-1.06,1.82-2.2,3.73c-0.74-2.71-1.2-4.19-1.54-5.7
	c-3.53-15.58-7.02-31.16-10.57-46.74c-0.38-1.68-0.62-3.57-1.59-4.88c-0.91-1.23-2.75-2.56-4.09-2.47c-1.54,0.1-3.29,1.45-4.37,2.74
	c-0.84,1.01-0.9,2.73-1.14,4.17c-1.66,9.98-3.27,19.96-4.92,29.94c-0.29,1.75-0.7,3.48-1.05,5.23c-0.35-0.03-0.71-0.05-1.06-0.08
	c-0.25-1.9-0.59-3.79-0.73-5.7c-4.12-55.75-8.22-111.5-12.33-167.24c-0.14-1.85,0.08-3.97-0.76-5.48c-0.9-1.64-2.88-3.8-4.32-3.75
	c-1.72,0.06-3.61,2.02-4.96,3.56c-0.76,0.86-0.63,2.53-0.82,3.84c-1.41,9.61-2.79,19.23-4.19,28.85
	c-13.14,90.49-26.27,180.98-39.42,271.46c-0.31,2.15-0.82,4.28-1.23,6.42c-0.33,0-0.67-0.01-1-0.01c-0.32-1.64-0.72-3.27-0.95-4.92
	c-13.8-99.55-27.6-199.09-41.4-298.62c-0.26-1.84-0.11-4-1.05-5.42c-1.09-1.66-3.22-3.72-4.82-3.65c-1.61,0.07-3.6,2.28-4.52,4.02
	c-0.87,1.64-0.6,3.89-0.77,5.88c-4.8,57.3-9.59,114.59-14.39,171.89c-0.13,1.49-0.44,2.97-0.66,4.46c-1.25-1.38-1.62-2.75-1.83-4.15
	c-1.37-9.22-2.7-18.44-4.06-27.65c-0.21-1.45-0.08-3.23-0.89-4.24c-1.27-1.59-3.16-3.55-4.87-3.65c-1.45-0.08-3.28,2.09-4.47,3.62
	c-0.72,0.93-0.59,2.54-0.77,3.86c-1.65,12.27,1.03,23.3-0.64,35.56l5.94,3.25c1.28,1.66,1.63,3.19,1.86,4.73
	c1.79,12.11,3.54,24.23,5.32,36.35c0.86,5.84,2.37,7.93,5.6,7.85c3.26-0.08,4.69-2.3,5.18-8.11c4.77-57.03,9.54-114.06,14.32-171.09
	c0.17-1.99,0.56-3.95,0.84-5.93c0.33,0.01,0.65,0.02,0.98,0.03c0.44,2.71,0.94,5.41,1.31,8.13
	c13.22,95.32,26.43,190.63,39.66,285.95c0.47,3.42,0.56,7.27,5.25,7.75c3.22,0.33,4.84-1.99,5.68-7.73
	c14.03-96.55,28.06-193.09,42.1-289.64c0.26-1.78,0.69-3.53,1.05-5.29c1.17,1.78,1.44,3.55,1.58,5.33
	c2.93,39.55,5.85,79.11,8.77,118.66c1.15,15.53,2.27,31.06,3.43,46.59c0.43,5.77,1.91,8.19,5.18,8.06c4.75-0.18,5-3.99,5.61-7.42
	c0.05-0.26,0.08-0.53,0.12-0.79c2.64-16.16,5.28-32.31,7.95-48.47c0.24-1.46,0.67-2.89,1.02-4.34c0.36,0.01,0.71,0.02,1.07,0.03
	c0.41,1.47,0.87,2.93,1.21,4.41c3.07,13.5,6.11,27,9.17,40.5c0.65,2.87,1.69,5.53,5.21,5.61c3.5,0.08,4.61-2.53,5.53-5.33
	c2.42-7.33,4.88-14.64,7.44-21.93c0.54-1.53,1.53-2.91,2.74-5.14c1.38,2.31,2.39,3.8,3.21,5.39c1.83,3.55,3.34,7.28,5.37,10.7
	c4.91,8.27,13.04,9.39,20.07,2.78c2.51-2.36,4.66-5.11,6.89-7.75c5.54-6.56,7.91-6.88,13.81-0.75c5.37,5.58,11.53,7.75,19.31,7.6
	c31.99-0.58,63.98-1.13,95.98-1.54v-9.32C723.14,238.4,693.16,238.65,663.19,238.92z"/>
</svg>
